<svg xmlns="http://www.w3.org/2000/svg" xmlns:xlink="http://www.w3.org/1999/xlink" width="530" zoomAndPan="magnify" viewBox="0 0 397.5 178.499995" height="238" preserveAspectRatio="xMidYMid meet" version="1.0"><defs><g/></defs><g fill="#bd2d2d" fill-opacity="1"><g transform="translate(116.353847, 90.236158)"><g><path d="M 44.25 -69.796875 L 49.359375 -60.828125 C 49.691406 -60.328125 49.921875 -59.828125 50.046875 -59.328125 C 50.171875 -58.828125 50.234375 -58.410156 50.234375 -58.078125 C 50.234375 -57.492188 50.023438 -57.140625 49.609375 -57.015625 C 49.191406 -56.898438 48.816406 -56.757812 48.484375 -56.59375 C 46.742188 -58.414062 44.414062 -59.703125 41.5 -60.453125 C 38.59375 -61.203125 35.9375 -61.578125 33.53125 -61.578125 L 30.90625 -61.578125 L 30.90625 -7.109375 C 30.90625 -5.441406 31.21875 -4.109375 31.84375 -3.109375 C 32.46875 -2.117188 33.09375 -1.394531 33.71875 -0.9375 C 34.34375 -0.476562 34.65625 -0.25 34.65625 -0.25 L 34.65625 0 L 16.828125 0 L 16.828125 -0.25 C 16.828125 -0.25 17.140625 -0.476562 17.765625 -0.9375 C 18.390625 -1.394531 19.007812 -2.117188 19.625 -3.109375 C 20.25 -4.109375 20.5625 -5.441406 20.5625 -7.109375 L 20.5625 -61.578125 L 17.953125 -61.578125 C 15.617188 -61.578125 12.976562 -61.203125 10.03125 -60.453125 C 7.082031 -59.703125 4.734375 -58.414062 2.984375 -56.59375 C 2.660156 -56.757812 2.289062 -56.898438 1.875 -57.015625 C 1.457031 -57.140625 1.25 -57.492188 1.25 -58.078125 C 1.25 -58.410156 1.3125 -58.828125 1.4375 -59.328125 C 1.5625 -59.828125 1.789062 -60.328125 2.125 -60.828125 L 7.234375 -69.796875 Z M 44.25 -69.796875 "/></g></g></g><g fill="#bd2d2d" fill-opacity="1"><g transform="translate(167.831429, 90.236158)"><g><path d="M 56.84375 -0.25 L 56.84375 0 L 40.75 0 L 40.75 -0.25 C 40.75 -0.25 41 -0.660156 41.5 -1.484375 C 42 -2.316406 42.476562 -3.335938 42.9375 -4.546875 C 43.394531 -5.753906 43.625 -6.898438 43.625 -7.984375 L 43.625 -31.65625 L 19.0625 -31.65625 L 19.0625 -7.984375 C 19.0625 -6.898438 19.3125 -5.753906 19.8125 -4.546875 C 20.3125 -3.335938 20.789062 -2.316406 21.25 -1.484375 C 21.707031 -0.660156 21.9375 -0.25 21.9375 -0.25 L 21.9375 0 L 5.859375 0 L 5.859375 -0.25 C 5.859375 -0.25 6.109375 -0.660156 6.609375 -1.484375 C 7.109375 -2.316406 7.582031 -3.335938 8.03125 -4.546875 C 8.488281 -5.753906 8.71875 -6.898438 8.71875 -7.984375 L 8.71875 -62.6875 C 8.71875 -64.351562 8.40625 -65.679688 7.78125 -66.671875 C 7.164062 -67.671875 6.546875 -68.398438 5.921875 -68.859375 C 5.296875 -69.316406 4.984375 -69.546875 4.984375 -69.546875 L 4.984375 -69.796875 L 22.8125 -69.796875 L 22.8125 -69.546875 C 22.8125 -69.546875 22.5 -69.316406 21.875 -68.859375 C 21.25 -68.398438 20.625 -67.671875 20 -66.671875 C 19.375 -65.679688 19.0625 -64.351562 19.0625 -62.6875 L 19.0625 -39.890625 L 43.625 -39.890625 L 43.625 -62.6875 C 43.625 -64.351562 43.3125 -65.679688 42.6875 -66.671875 C 42.0625 -67.671875 41.4375 -68.398438 40.8125 -68.859375 C 40.195312 -69.316406 39.890625 -69.546875 39.890625 -69.546875 L 39.890625 -69.796875 L 57.703125 -69.796875 L 57.703125 -69.546875 C 57.703125 -69.546875 57.390625 -69.316406 56.765625 -68.859375 C 56.148438 -68.398438 55.53125 -67.671875 54.90625 -66.671875 C 54.28125 -65.679688 53.96875 -64.351562 53.96875 -62.6875 L 53.96875 -7.984375 C 53.96875 -6.898438 54.21875 -5.753906 54.71875 -4.546875 C 55.21875 -3.335938 55.695312 -2.316406 56.15625 -1.484375 C 56.613281 -0.660156 56.84375 -0.25 56.84375 -0.25 Z M 56.84375 -0.25 "/></g></g></g><g fill="#bd2d2d" fill-opacity="1"><g transform="translate(230.526878, 90.236158)"><g><path d="M 47.984375 -8.96875 L 42.875 0 L 5.859375 0 L 5.859375 -0.25 C 5.859375 -0.25 6.109375 -0.660156 6.609375 -1.484375 C 7.109375 -2.316406 7.582031 -3.335938 8.03125 -4.546875 C 8.488281 -5.753906 8.71875 -6.898438 8.71875 -7.984375 L 8.71875 -62.6875 C 8.71875 -64.351562 8.40625 -65.679688 7.78125 -66.671875 C 7.164062 -67.671875 6.546875 -68.398438 5.921875 -68.859375 C 5.296875 -69.316406 4.984375 -69.546875 4.984375 -69.546875 L 4.984375 -69.796875 L 37.390625 -69.796875 L 42.5 -60.828125 C 42.832031 -60.328125 43.0625 -59.828125 43.1875 -59.328125 C 43.3125 -58.828125 43.375 -58.410156 43.375 -58.078125 C 43.375 -57.492188 43.164062 -57.140625 42.75 -57.015625 C 42.332031 -56.898438 41.957031 -56.757812 41.625 -56.59375 C 39.882812 -58.414062 37.554688 -59.703125 34.640625 -60.453125 C 31.734375 -61.203125 29.078125 -61.578125 26.671875 -61.578125 L 19.0625 -61.578125 L 19.0625 -39.390625 L 32.15625 -39.390625 C 33.238281 -39.390625 34.398438 -39.578125 35.640625 -39.953125 C 36.890625 -40.328125 37.953125 -40.695312 38.828125 -41.0625 C 39.703125 -41.4375 40.140625 -41.625 40.140625 -41.625 L 40.140625 -28.921875 C 40.140625 -28.921875 39.703125 -29.101562 38.828125 -29.46875 C 37.953125 -29.84375 36.890625 -30.21875 35.640625 -30.59375 C 34.398438 -30.96875 33.238281 -31.15625 32.15625 -31.15625 L 19.0625 -31.15625 L 19.0625 -8.21875 L 32.15625 -8.21875 C 34.5625 -8.21875 37.21875 -8.59375 40.125 -9.34375 C 43.039062 -10.09375 45.367188 -11.382812 47.109375 -13.21875 C 47.441406 -13.050781 47.816406 -12.90625 48.234375 -12.78125 C 48.648438 -12.65625 48.859375 -12.300781 48.859375 -11.71875 C 48.859375 -11.382812 48.796875 -10.96875 48.671875 -10.46875 C 48.546875 -9.96875 48.316406 -9.46875 47.984375 -8.96875 Z M 47.984375 -8.96875 "/></g></g></g><g fill="#bd2d2d" fill-opacity="1"><g transform="translate(4.244059, 171.066402)"><g><path d="M 7.484375 -19.6875 L 23.3125 -59.828125 C 23.3125 -59.828125 23.515625 -60.363281 23.921875 -61.4375 C 24.335938 -62.519531 24.816406 -63.769531 25.359375 -65.1875 C 25.898438 -66.601562 26.398438 -67.847656 26.859375 -68.921875 C 27.316406 -70.003906 27.546875 -70.546875 27.546875 -70.546875 C 27.796875 -70.710938 28.046875 -70.878906 28.296875 -71.046875 C 28.546875 -71.210938 28.835938 -71.296875 29.171875 -71.296875 C 29.660156 -71.296875 30.238281 -70.585938 30.90625 -69.171875 L 52.09375 -21.5625 C 53.507812 -18.40625 55.273438 -14.851562 57.390625 -10.90625 C 59.515625 -6.957031 61.738281 -3.40625 64.0625 -0.25 L 64.0625 0 L 49.234375 0 L 43 -14.203125 L 16.453125 -14.203125 L 11.09375 0 L -2.5 0 L -2.5 -0.25 C -0.0820312 -3.40625 1.890625 -6.6875 3.421875 -10.09375 C 4.960938 -13.5 6.316406 -16.695312 7.484375 -19.6875 Z M 28.796875 -46.734375 L 19.6875 -22.4375 L 39.515625 -22.4375 L 29.046875 -46.734375 Z M 28.796875 -46.734375 "/></g></g></g><g fill="#bd2d2d" fill-opacity="1"><g transform="translate(65.817719, 171.066402)"><g><path d="M 15.328125 0.375 L 5.859375 0 L 5.859375 -0.25 C 5.859375 -0.25 6.109375 -0.660156 6.609375 -1.484375 C 7.109375 -2.316406 7.582031 -3.335938 8.03125 -4.546875 C 8.488281 -5.753906 8.71875 -6.898438 8.71875 -7.984375 L 8.71875 -62.6875 C 8.71875 -64.351562 8.40625 -65.679688 7.78125 -66.671875 C 7.164062 -67.671875 6.546875 -68.398438 5.921875 -68.859375 C 5.296875 -69.316406 4.984375 -69.546875 4.984375 -69.546875 L 4.984375 -69.796875 L 19.3125 -70.171875 C 24.550781 -70.335938 29.25 -69.460938 33.40625 -67.546875 C 37.5625 -65.640625 41.09375 -63.046875 44 -59.765625 C 46.90625 -56.484375 49.125 -52.785156 50.65625 -48.671875 C 52.195312 -44.554688 52.96875 -40.335938 52.96875 -36.015625 C 52.96875 -31.867188 52.28125 -27.59375 50.90625 -23.1875 C 49.539062 -18.78125 47.363281 -14.75 44.375 -11.09375 C 41.382812 -7.4375 37.5 -4.546875 32.71875 -2.421875 C 27.9375 -0.304688 22.140625 0.625 15.328125 0.375 Z M 21.3125 -59.828125 C 20.976562 -59.828125 20.625 -59.804688 20.25 -59.765625 C 19.875 -59.722656 19.519531 -59.703125 19.1875 -59.703125 L 19.1875 -10.34375 C 19.9375 -10.257812 20.707031 -10.21875 21.5 -10.21875 C 22.289062 -10.21875 23.101562 -10.21875 23.9375 -10.21875 C 25.425781 -10.21875 27.144531 -10.632812 29.09375 -11.46875 C 31.050781 -12.300781 32.941406 -13.648438 34.765625 -15.515625 C 36.597656 -17.390625 38.09375 -19.90625 39.25 -23.0625 C 40.414062 -26.21875 41 -30.164062 41 -34.90625 C 41 -39.300781 40.1875 -43.390625 38.5625 -47.171875 C 36.945312 -50.953125 34.664062 -54.003906 31.71875 -56.328125 C 28.769531 -58.660156 25.300781 -59.828125 21.3125 -59.828125 Z M 21.3125 -59.828125 "/></g></g></g><g fill="#bd2d2d" fill-opacity="1"><g transform="translate(121.907089, 171.066402)"><g><path d="M 18.953125 0 L 5.859375 0 L 5.859375 -0.25 C 5.859375 -0.25 6.109375 -0.660156 6.609375 -1.484375 C 7.109375 -2.316406 7.582031 -3.335938 8.03125 -4.546875 C 8.488281 -5.753906 8.71875 -6.898438 8.71875 -7.984375 L 8.71875 -62.6875 C 8.71875 -64.351562 8.40625 -65.679688 7.78125 -66.671875 C 7.164062 -67.671875 6.546875 -68.398438 5.921875 -68.859375 C 5.296875 -69.316406 4.984375 -69.546875 4.984375 -69.546875 L 4.984375 -69.921875 L 20.4375 -69.796875 C 24.34375 -69.960938 28.1875 -69.316406 31.96875 -67.859375 C 35.75 -66.410156 38.863281 -64.171875 41.3125 -61.140625 C 43.769531 -58.109375 45 -54.179688 45 -49.359375 C 45 -45.285156 43.644531 -41.398438 40.9375 -37.703125 C 38.238281 -34.003906 34.769531 -31.328125 30.53125 -29.671875 L 30.53125 -29.421875 L 41.125 -17.703125 C 43.707031 -14.878906 45.554688 -13.03125 46.671875 -12.15625 C 47.796875 -11.28125 48.648438 -10.84375 49.234375 -10.84375 C 51.222656 -10.84375 52.945312 -10.425781 54.40625 -9.59375 C 55.863281 -8.757812 56.59375 -7.304688 56.59375 -5.234375 C 56.59375 -3.410156 55.925781 -1.832031 54.59375 -0.5 C 53.257812 0.832031 51.640625 1.5 49.734375 1.5 C 46.742188 1.5 43.832031 0.273438 41 -2.171875 C 38.175781 -4.628906 35.726562 -7.269531 33.65625 -10.09375 L 20.3125 -28.171875 L 18.953125 -27.921875 Z M 23.8125 -61.078125 C 23.3125 -61.078125 22.601562 -61.054688 21.6875 -61.015625 C 20.769531 -60.972656 19.859375 -60.910156 18.953125 -60.828125 L 18.953125 -37.640625 C 19.691406 -37.140625 20.519531 -36.785156 21.4375 -36.578125 C 22.351562 -36.367188 23.269531 -36.265625 24.1875 -36.265625 C 27.59375 -36.265625 30.144531 -37.53125 31.84375 -40.0625 C 33.550781 -42.601562 34.40625 -45.285156 34.40625 -48.109375 C 34.40625 -49.859375 34.070312 -51.726562 33.40625 -53.71875 C 32.738281 -55.71875 31.632812 -57.441406 30.09375 -58.890625 C 28.5625 -60.347656 26.46875 -61.078125 23.8125 -61.078125 Z M 23.8125 -61.078125 "/></g></g></g><g fill="#bd2d2d" fill-opacity="1"><g transform="translate(179.118247, 171.066402)"><g><path d="M 21.9375 -0.25 L 21.9375 0 L 5.859375 0 L 5.859375 -0.25 C 5.859375 -0.25 6.109375 -0.660156 6.609375 -1.484375 C 7.109375 -2.316406 7.582031 -3.335938 8.03125 -4.546875 C 8.488281 -5.753906 8.71875 -6.898438 8.71875 -7.984375 L 8.71875 -62.6875 C 8.71875 -64.351562 8.40625 -65.679688 7.78125 -66.671875 C 7.164062 -67.671875 6.546875 -68.398438 5.921875 -68.859375 C 5.296875 -69.316406 4.984375 -69.546875 4.984375 -69.546875 L 4.984375 -69.796875 L 22.8125 -69.796875 L 22.8125 -69.546875 C 22.8125 -69.546875 22.5 -69.316406 21.875 -68.859375 C 21.25 -68.398438 20.625 -67.671875 20 -66.671875 C 19.375 -65.679688 19.0625 -64.351562 19.0625 -62.6875 L 19.0625 -7.984375 C 19.0625 -6.898438 19.3125 -5.753906 19.8125 -4.546875 C 20.3125 -3.335938 20.789062 -2.316406 21.25 -1.484375 C 21.707031 -0.660156 21.9375 -0.25 21.9375 -0.25 Z M 21.9375 -0.25 "/></g></g></g><g fill="#bd2d2d" fill-opacity="1"><g transform="translate(206.913663, 171.066402)"><g><path d="M 7.484375 -19.6875 L 23.3125 -59.828125 C 23.3125 -59.828125 23.515625 -60.363281 23.921875 -61.4375 C 24.335938 -62.519531 24.816406 -63.769531 25.359375 -65.1875 C 25.898438 -66.601562 26.398438 -67.847656 26.859375 -68.921875 C 27.316406 -70.003906 27.546875 -70.546875 27.546875 -70.546875 C 27.796875 -70.710938 28.046875 -70.878906 28.296875 -71.046875 C 28.546875 -71.210938 28.835938 -71.296875 29.171875 -71.296875 C 29.660156 -71.296875 30.238281 -70.585938 30.90625 -69.171875 L 52.09375 -21.5625 C 53.507812 -18.40625 55.273438 -14.851562 57.390625 -10.90625 C 59.515625 -6.957031 61.738281 -3.40625 64.0625 -0.25 L 64.0625 0 L 49.234375 0 L 43 -14.203125 L 16.453125 -14.203125 L 11.09375 0 L -2.5 0 L -2.5 -0.25 C -0.0820312 -3.40625 1.890625 -6.6875 3.421875 -10.09375 C 4.960938 -13.5 6.316406 -16.695312 7.484375 -19.6875 Z M 28.796875 -46.734375 L 19.6875 -22.4375 L 39.515625 -22.4375 L 29.046875 -46.734375 Z M 28.796875 -46.734375 "/></g></g></g><g fill="#bd2d2d" fill-opacity="1"><g transform="translate(261.008547, 171.066402)"><g><path d="M 44.25 -69.796875 L 49.359375 -60.828125 C 49.691406 -60.328125 49.921875 -59.828125 50.046875 -59.328125 C 50.171875 -58.828125 50.234375 -58.410156 50.234375 -58.078125 C 50.234375 -57.492188 50.023438 -57.140625 49.609375 -57.015625 C 49.191406 -56.898438 48.816406 -56.757812 48.484375 -56.59375 C 46.742188 -58.414062 44.414062 -59.703125 41.5 -60.453125 C 38.59375 -61.203125 35.9375 -61.578125 33.53125 -61.578125 L 30.90625 -61.578125 L 30.90625 -7.109375 C 30.90625 -5.441406 31.21875 -4.109375 31.84375 -3.109375 C 32.46875 -2.117188 33.09375 -1.394531 33.71875 -0.9375 C 34.34375 -0.476562 34.65625 -0.25 34.65625 -0.25 L 34.65625 0 L 16.828125 0 L 16.828125 -0.25 C 16.828125 -0.25 17.140625 -0.476562 17.765625 -0.9375 C 18.390625 -1.394531 19.007812 -2.117188 19.625 -3.109375 C 20.25 -4.109375 20.5625 -5.441406 20.5625 -7.109375 L 20.5625 -61.578125 L 17.953125 -61.578125 C 15.617188 -61.578125 12.976562 -61.203125 10.03125 -60.453125 C 7.082031 -59.703125 4.734375 -58.414062 2.984375 -56.59375 C 2.660156 -56.757812 2.289062 -56.898438 1.875 -57.015625 C 1.457031 -57.140625 1.25 -57.492188 1.25 -58.078125 C 1.25 -58.410156 1.3125 -58.828125 1.4375 -59.328125 C 1.5625 -59.828125 1.789062 -60.328125 2.125 -60.828125 L 7.234375 -69.796875 Z M 44.25 -69.796875 "/></g></g></g><g fill="#bd2d2d" fill-opacity="1"><g transform="translate(312.486129, 171.066402)"><g><path d="M 21.9375 -0.25 L 21.9375 0 L 5.859375 0 L 5.859375 -0.25 C 5.859375 -0.25 6.109375 -0.660156 6.609375 -1.484375 C 7.109375 -2.316406 7.582031 -3.335938 8.03125 -4.546875 C 8.488281 -5.753906 8.71875 -6.898438 8.71875 -7.984375 L 8.71875 -62.6875 C 8.71875 -64.351562 8.40625 -65.679688 7.78125 -66.671875 C 7.164062 -67.671875 6.546875 -68.398438 5.921875 -68.859375 C 5.296875 -69.316406 4.984375 -69.546875 4.984375 -69.546875 L 4.984375 -69.796875 L 22.8125 -69.796875 L 22.8125 -69.546875 C 22.8125 -69.546875 22.5 -69.316406 21.875 -68.859375 C 21.25 -68.398438 20.625 -67.671875 20 -66.671875 C 19.375 -65.679688 19.0625 -64.351562 19.0625 -62.6875 L 19.0625 -7.984375 C 19.0625 -6.898438 19.3125 -5.753906 19.8125 -4.546875 C 20.3125 -3.335938 20.789062 -2.316406 21.25 -1.484375 C 21.707031 -0.660156 21.9375 -0.25 21.9375 -0.25 Z M 21.9375 -0.25 "/></g></g></g><g fill="#bd2d2d" fill-opacity="1"><g transform="translate(340.281545, 171.066402)"><g><path d="M 2.5 -34.90625 C 2.5 -40.382812 3.285156 -45.160156 4.859375 -49.234375 C 6.441406 -53.304688 8.5625 -56.753906 11.21875 -59.578125 C 13.875 -62.398438 16.757812 -64.679688 19.875 -66.421875 C 22.988281 -68.171875 26.082031 -69.441406 29.15625 -70.234375 C 32.238281 -71.023438 35.023438 -71.421875 37.515625 -71.421875 C 41.335938 -71.421875 44.535156 -71.148438 47.109375 -70.609375 C 49.691406 -70.066406 51.023438 -69.796875 51.109375 -69.796875 L 49.609375 -58.328125 L 49.359375 -58.328125 C 47.359375 -59.742188 45.503906 -60.722656 43.796875 -61.265625 C 42.097656 -61.804688 40.171875 -62.078125 38.015625 -62.078125 C 33.273438 -62.078125 29.390625 -61.203125 26.359375 -59.453125 C 23.328125 -57.710938 20.9375 -55.445312 19.1875 -52.65625 C 17.445312 -49.875 16.242188 -46.90625 15.578125 -43.75 C 14.910156 -40.59375 14.578125 -37.644531 14.578125 -34.90625 C 14.578125 -32.15625 14.910156 -29.203125 15.578125 -26.046875 C 16.242188 -22.890625 17.445312 -19.941406 19.1875 -17.203125 C 20.9375 -14.460938 23.328125 -12.21875 26.359375 -10.46875 C 29.390625 -8.726562 33.273438 -7.859375 38.015625 -7.859375 C 40.171875 -7.859375 42.097656 -8.144531 43.796875 -8.71875 C 45.503906 -9.300781 47.359375 -10.257812 49.359375 -11.59375 L 49.609375 -11.59375 L 51.109375 -0.125 C 51.023438 -0.125 49.691406 0.144531 47.109375 0.6875 C 44.535156 1.226562 41.335938 1.5 37.515625 1.5 C 35.023438 1.5 32.238281 1.101562 29.15625 0.3125 C 26.082031 -0.476562 22.988281 -1.722656 19.875 -3.421875 C 16.757812 -5.128906 13.875 -7.394531 11.21875 -10.21875 C 8.5625 -13.039062 6.441406 -16.488281 4.859375 -20.5625 C 3.285156 -24.632812 2.5 -29.414062 2.5 -34.90625 Z M 2.5 -34.90625 "/></g></g></g></svg>
